<svg width="210" height="18" viewBox="0 0 210 18" fill="none" xmlns="http://www.w3.org/2000/svg">
<path d="M7.7196 4.43594L7.7196 5.71693C7.7196 6.46669 7.23475 6.95127 6.50963 6.95127C5.76032 6.95127 5.30053 6.46669 5.30053 5.71693L5.30053 4.02392C5.30053 3.03317 4.76814 2.54858 3.9203 2.54858C3.07419 2.54858 2.566 3.03317 2.566 4.02392L2.566 14.2787C2.566 15.2704 3.07419 15.7541 3.9203 15.7541C4.76728 15.7541 5.30053 15.2704 5.30053 14.2787L5.30053 12.5857C5.30053 11.836 5.76032 11.3522 6.50963 11.3522C7.23562 11.3522 7.7196 11.836 7.7196 12.5857L7.7196 13.8676C7.7196 16.3337 6.38864 17.9541 3.8961 17.9541C1.35603 17.9541 -1.44775e-10 16.3829 -1.22065e-10 13.8676L0 4.43508C0 1.91975 1.35517 0.347656 3.8961 0.347656C6.38864 0.347656 7.7196 1.96811 7.7196 4.43594Z" fill="#333333"/>
<path d="M16.286 4.38671C16.286 1.9448 17.8348 0.347656 20.3031 0.347656C22.7706 0.347656 24.3193 1.9448 24.3193 4.38671L24.3193 13.916C24.3193 16.3587 22.7706 17.955 20.3031 17.955C17.8348 17.955 16.286 16.3587 16.286 13.916L16.286 4.38671ZM21.7551 4.02392C21.7551 3.15323 21.1976 2.54858 20.3031 2.54858C19.4077 2.54858 18.8511 3.15323 18.8511 4.02392L18.8511 14.2787C18.8511 15.1494 19.4077 15.7541 20.3031 15.7541C21.1976 15.7541 21.7551 15.1494 21.7551 14.2787L21.7551 4.02392Z" fill="#333333"/>
<path d="M34.7013 0.68689L36.9276 0.68689C39.9284 0.68689 41.3328 2.45245 41.3328 5.16127L41.3328 13.1426C41.3328 15.8514 39.9284 17.617 36.9276 17.617L34.7013 17.617C33.9511 17.617 33.4196 17.0849 33.4196 16.3352L33.4196 1.96874C33.4196 1.21811 33.9511 0.68689 34.7013 0.68689ZM36.9527 15.3677C38.1627 15.3677 38.7676 14.6413 38.7676 13.5287L38.7676 4.77344C38.7676 3.66089 38.1635 2.93531 36.9527 2.93531L35.9847 2.93531L35.9847 15.3677L36.9527 15.3677Z" fill="#333333"/>
<path d="M50.4316 1.72698C50.4316 0.977214 50.9398 0.445129 51.7142 0.445129C52.4636 0.445129 52.996 0.977214 52.996 1.72698L52.996 16.5763C52.996 17.326 52.4636 17.8581 51.7142 17.8581C50.9398 17.8581 50.4316 17.326 50.4316 16.5763L50.4316 1.72698Z" fill="#333333"/>
<path d="M69.8142 4.43594L69.8142 5.71693C69.8142 6.46669 69.3293 6.95127 68.6042 6.95127C67.8549 6.95127 67.3951 6.46669 67.3951 5.71693L67.3951 4.02392C67.3951 3.03317 66.8627 2.54858 66.0149 2.54858C65.1688 2.54858 64.6606 3.03317 64.6606 4.02392L64.6606 14.2787C64.6606 15.2704 65.1688 15.7541 66.0149 15.7541C66.8619 15.7541 67.3951 15.2704 67.3951 14.2787L67.3951 12.5857C67.3951 11.836 67.8549 11.3522 68.6042 11.3522C69.3302 11.3522 69.8142 11.836 69.8142 12.5857L69.8142 13.8676C69.8142 16.3337 68.4832 17.9541 65.9907 17.9541C63.4506 17.9541 62.0946 16.3829 62.0946 13.8676L62.0946 4.43508C62.0946 1.91975 63.4498 0.347656 65.9907 0.347656C68.4832 0.347656 69.8142 1.96811 69.8142 4.43594Z" fill="#333333"/>
<path d="M78.7195 1.96788C78.7195 1.21812 79.2519 0.68689 80.0013 0.68689L84.842 0.68689C85.5196 0.68689 85.9785 1.17061 85.9785 1.82276C85.9785 2.49997 85.5196 2.9595 84.842 2.9595L81.2847 2.9595L81.2847 7.89342L84.0426 7.89342C84.6968 7.89342 85.1799 8.37714 85.1799 9.0293C85.1799 9.7065 84.6959 10.166 84.0426 10.166L81.2847 10.166L81.2847 15.3418L84.8671 15.3418C85.5438 15.3418 86.0044 15.8255 86.0044 16.4777C86.0044 17.1316 85.5438 17.6144 84.8671 17.6144L80.0021 17.6144C79.2528 17.6144 78.7204 17.0823 78.7204 16.3326L78.7204 1.96788L78.7195 1.96788Z" fill="#333333"/>
<path d="M97.1607 10.9417L97.1607 16.5762C97.1607 17.3259 96.6274 17.858 95.8781 17.858C95.1279 17.858 94.5955 17.3259 94.5955 16.5762L94.5955 1.96788C94.5955 1.21812 95.1279 0.68689 95.8781 0.68689L98.1529 0.68689C100.791 0.68689 102.314 2.01711 102.314 4.82267L102.314 6.75668C102.314 9.2962 100.621 10.9417 98.1045 10.9417L97.1607 10.9417ZM99.7492 4.77344C99.7492 3.63757 99.1675 2.9595 98.0794 2.9595L97.1607 2.9595L97.1607 8.66651L98.0319 8.66651C99.1208 8.66651 99.7492 8.01349 99.7492 6.85256L99.7492 4.77344Z" fill="#333333"/>
<path d="M110.904 1.72698C110.904 0.977214 111.436 0.445129 112.186 0.445129C112.936 0.445129 113.469 0.977214 113.469 1.72698L113.469 15.3436L116.614 15.3436C117.268 15.3436 117.752 15.8274 117.752 16.4795C117.752 17.1334 117.268 17.6163 116.614 17.6163L112.186 17.6163C111.436 17.6163 110.904 17.0842 110.904 16.3344L110.904 1.72698Z" fill="#333333"/>
<path d="M134.062 16.3111C134.257 17.3018 133.554 17.859 132.853 17.859C132.272 17.859 131.691 17.472 131.571 16.6497L131.159 13.699L128.619 13.699L128.231 16.6497C128.111 17.472 127.578 17.859 126.949 17.859C126.248 17.859 125.546 17.3018 125.74 16.3111L128.547 1.65442C128.716 0.832098 129.128 0.445129 129.902 0.445129C130.675 0.445129 131.087 0.832098 131.256 1.65442L134.062 16.3111ZM128.933 11.473L130.869 11.473L129.998 4.99121C129.973 4.77354 129.925 4.48331 129.901 4.1689C129.877 4.48331 129.828 4.79859 129.804 4.99121L128.933 11.473Z" fill="#333333"/>
<path d="M142.315 13.3348C142.315 12.5125 142.774 12.1013 143.5 12.1013C144.274 12.1013 144.735 12.585 144.735 13.3348L144.735 13.9153C144.735 14.9794 145.074 15.8026 146.162 15.8026C147.154 15.8026 147.566 15.0762 147.566 13.8919C147.566 12.0771 146.574 11.1347 145.436 10.0948C143.67 8.49848 142.193 6.87803 142.193 4.45944C142.193 1.72729 143.67 0.347839 146.017 0.347839C148.267 0.347839 149.744 1.79985 149.744 4.14502L149.744 4.99067C149.744 5.71624 149.259 6.17577 148.534 6.17577C147.832 6.17577 147.324 5.71624 147.324 4.99067L147.324 4.21672C147.324 3.17673 146.889 2.54703 146.017 2.54703C145.074 2.54703 144.711 3.22423 144.711 4.26422C144.711 5.83631 145.582 6.77955 146.696 7.81955C148.075 9.12559 150.084 10.9637 150.084 13.6483C150.084 16.1637 148.534 17.9526 146.113 17.9526C143.719 17.9526 142.315 16.2596 142.315 14.0111L142.315 13.3348Z" fill="#333333"/>
<path d="M162.909 2.96047L162.909 16.5771C162.909 17.3269 162.376 17.859 161.626 17.859C160.852 17.859 160.344 17.3269 160.344 16.5771L160.344 2.96047L158.529 2.96047C157.876 2.96047 157.392 2.50093 157.392 1.82373C157.392 1.17071 157.876 0.687866 158.529 0.687866L164.724 0.687866C165.401 0.687866 165.861 1.17157 165.861 1.82373C165.861 2.50093 165.401 2.96047 164.724 2.96047L162.909 2.96047Z" fill="#333333"/>
<path d="M174.016 1.72698C174.016 0.977214 174.525 0.445129 175.297 0.445129C176.048 0.445129 176.581 0.977214 176.581 1.72698L176.581 16.5763C176.581 17.326 176.048 17.8581 175.297 17.8581C174.524 17.8581 174.016 17.326 174.016 16.5763L174.016 1.72698Z" fill="#333333"/>
<path d="M193.399 4.43594L193.399 5.71693C193.399 6.46669 192.914 6.95127 192.189 6.95127C191.44 6.95127 190.979 6.46669 190.979 5.71693L190.979 4.02392C190.979 3.03317 190.448 2.54858 189.6 2.54858C188.754 2.54858 188.245 3.03317 188.245 4.02392L188.245 14.2787C188.245 15.2704 188.754 15.7541 189.6 15.7541C190.447 15.7541 190.979 15.2704 190.979 14.2787L190.979 12.5857C190.979 11.836 191.44 11.3522 192.189 11.3522C192.915 11.3522 193.399 11.836 193.399 12.5857L193.399 13.8676C193.399 16.3337 192.068 17.9541 189.576 17.9541C187.036 17.9541 185.68 16.3829 185.68 13.8676L185.68 4.43508C185.68 1.91975 187.035 0.347656 189.576 0.347656C192.068 0.347656 193.399 1.96811 193.399 4.43594Z" fill="#333333"/>
<path d="M201.967 4.38671C201.967 1.9448 203.515 0.347656 205.983 0.347656C208.451 0.347656 210 1.9448 210 4.38671L210 13.916C210 16.3587 208.451 17.955 205.983 17.955C203.515 17.955 201.967 16.3587 201.967 13.916L201.967 4.38671ZM207.436 4.02392C207.436 3.15323 206.878 2.54858 205.983 2.54858C205.088 2.54858 204.531 3.15323 204.531 4.02392L204.531 14.2787C204.531 15.1494 205.088 15.7541 205.983 15.7541C206.878 15.7541 207.436 15.1494 207.436 14.2787L207.436 4.02392Z" fill="#333333"/>
</svg>
