<svg width="62" height="73" viewBox="0 0 62 73" fill="none" xmlns="http://www.w3.org/2000/svg">
<path d="M61.5 0H0V60L31.5 72.5L61.5 60V0Z" fill="black"/>
<path d="M27.1826 36.7739C27.2779 36.695 27.3755 36.6192 27.4704 36.5431C27.3745 36.6195 27.2785 36.6943 27.1826 36.7739ZM24.9178 53.1383C24.8324 52.5546 24.3039 52.1535 23.7379 52.2412C23.6498 52.2551 23.5671 52.281 23.4886 52.3153C23.7128 52.5607 23.9264 52.7943 24.1213 53.0074C24.449 53.3667 24.6972 53.5435 24.8851 53.604C24.9277 53.4575 24.9412 53.2998 24.9178 53.1383ZM26.2005 50.3912C25.6345 50.4793 25.2458 51.0242 25.3305 51.6075C25.4169 52.1909 25.9447 52.5924 26.5107 52.5043C27.0768 52.4163 27.4661 51.8717 27.3807 51.288C27.2954 50.704 26.7666 50.3032 26.2005 50.3912ZM29.3031 41.1295C29.3835 41.6769 29.8787 42.0538 30.4094 41.9706C30.9402 41.8883 31.3055 41.377 31.2254 40.8301C31.2158 40.7621 31.199 40.6968 31.1772 40.6353C31.0388 40.245 30.6768 39.9809 30.271 39.9785C30.2209 39.9782 30.1701 39.9809 30.119 39.989C29.5882 40.0716 29.2229 40.5822 29.3031 41.1295ZM30.059 44.1686C30.597 44.0847 30.9669 43.5673 30.8855 43.0128C30.8037 42.458 30.302 42.0766 29.7643 42.1602C29.2262 42.2442 28.8564 42.7619 28.9378 43.3164C29.0189 43.8708 29.5213 44.2526 30.059 44.1686ZM29.7086 46.3667C30.2532 46.2814 30.628 45.7568 30.5456 45.1952C30.4632 44.6333 29.9545 44.2468 29.4099 44.3318C28.8653 44.4168 28.4901 44.941 28.5725 45.5032C28.6549 46.0648 29.1636 46.4513 29.7086 46.3667ZM29.3578 48.5637C29.9097 48.4777 30.2891 47.9467 30.2057 47.3777C30.1223 46.8086 29.6073 46.417 29.0555 46.503C28.5033 46.5893 28.1238 47.1203 28.2072 47.6894C28.2906 48.2588 28.8059 48.6497 29.3578 48.5637ZM29.8658 49.5604C29.7814 48.9842 29.2595 48.5875 28.7004 48.6745C28.142 48.7619 27.7576 49.3 27.842 49.8759C27.9263 50.4524 28.4479 50.8491 29.0067 50.7618C29.5655 50.6744 29.9502 50.1366 29.8658 49.5604ZM28.346 50.8461C27.7796 50.9341 27.3906 51.4787 27.476 52.0624C27.5614 52.6461 28.0899 53.0475 28.6559 52.9592C29.222 52.8708 29.6113 52.3265 29.5256 51.7428C29.4402 51.1592 28.9121 50.758 28.346 50.8461ZM31.586 41.4501C31.6536 41.91 32.0697 42.2265 32.5151 42.1568C32.8589 42.1031 33.1193 41.8353 33.1899 41.5045C32.674 41.3672 32.1672 41.172 31.6787 40.9188C31.5953 41.0752 31.5577 41.2601 31.586 41.4501ZM32.1636 44.3484C32.6133 44.2781 32.9229 43.8457 32.8549 43.3817C32.7867 42.9183 32.3674 42.5991 31.9174 42.6691C31.4677 42.7395 31.1581 43.1719 31.226 43.6359C31.2946 44.0999 31.7143 44.4185 32.1636 44.3484ZM30.8667 45.8214C30.9353 46.2892 31.3586 46.6108 31.8122 46.54C32.2655 46.4693 32.5777 46.0332 32.5088 45.5654C32.4405 45.0977 32.0172 44.7761 31.5636 44.8468C31.1103 44.9175 30.7981 45.354 30.8667 45.8214ZM31.2102 47.0241C30.7523 47.0955 30.4381 47.5357 30.507 48.0076C30.5763 48.4791 31.0028 48.8034 31.4608 48.7323C31.918 48.6609 32.2329 48.2207 32.1636 47.7489C32.0944 47.277 31.6671 46.9527 31.2102 47.0241ZM30.8561 49.2018C30.3949 49.2732 30.0778 49.7175 30.1473 50.1927C30.2172 50.6683 30.6478 50.9957 31.109 50.9236C31.5699 50.8515 31.8874 50.4079 31.8178 49.932C31.7479 49.4571 31.3174 49.1297 30.8561 49.2018ZM30.5024 51.3791C30.0376 51.4519 29.7168 51.8996 29.7877 52.3789C29.8582 52.8582 30.2921 53.1883 30.7572 53.1159C31.2221 53.0428 31.5422 52.5958 31.472 52.1161C31.4017 51.6364 30.9676 51.3064 30.5024 51.3791ZM34.5274 42.371C34.8386 42.3224 35.0684 42.0654 35.105 41.7581C34.649 41.7574 34.1924 41.7153 33.7404 41.631C33.7378 41.6792 33.7398 41.7282 33.747 41.7778C33.8037 42.164 34.1529 42.4295 34.5274 42.371ZM34.1832 44.5742C34.5715 44.5137 34.8382 44.1404 34.7799 43.74C34.7212 43.3398 34.3589 43.0648 33.9706 43.1253C33.5825 43.1858 33.3158 43.5594 33.3742 43.9596C33.4332 44.3597 33.7952 44.6354 34.1832 44.5742ZM33.839 46.778C34.2409 46.7155 34.5178 46.3286 34.4568 45.9146C34.3958 45.4998 34.021 45.2146 33.6188 45.2775C33.2169 45.3404 32.9407 45.7272 33.0016 46.1413C33.0626 46.5553 33.4375 46.8406 33.839 46.778ZM34.1341 48.0878C34.0714 47.6595 33.6834 47.3647 33.2677 47.4293C32.852 47.4943 32.5662 47.8944 32.6291 48.3227C32.6918 48.751 33.0791 49.0461 33.4952 48.9812C33.9109 48.9166 34.1964 48.5165 34.1341 48.0878ZM32.9159 49.5822C32.4867 49.6488 32.1913 50.0622 32.2563 50.5048C32.3212 50.9474 32.7218 51.2516 33.1513 51.1847C33.5802 51.1177 33.8756 50.705 33.8107 50.2624C33.7457 49.8198 33.3452 49.5149 32.9159 49.5822ZM32.5645 51.7343C32.1214 51.803 31.8165 52.2296 31.8837 52.6862C31.951 53.1434 32.3641 53.4575 32.8075 53.3885C33.2502 53.3192 33.5552 52.8925 33.4879 52.436C33.4207 51.9794 33.0076 51.6647 32.5645 51.7343ZM36.119 42.0844C36.1553 42.3319 36.3795 42.5022 36.6195 42.4648C36.8598 42.4274 37.0246 42.1963 36.9884 41.9485C36.963 41.7761 36.8453 41.6429 36.6956 41.5895C36.631 41.5667 36.5605 41.5569 36.4879 41.5681C36.4055 41.581 36.3333 41.6177 36.2736 41.669C36.1596 41.7673 36.0953 41.9216 36.119 42.0844ZM36.2825 44.7183C36.5634 44.6748 36.7566 44.4045 36.7141 44.1156C36.6716 43.826 36.4095 43.6268 36.1292 43.6706C35.849 43.7145 35.6555 43.9847 35.698 44.2737C35.7406 44.5633 36.0023 44.7625 36.2825 44.7183ZM35.9463 46.9718C36.2674 46.9221 36.4883 46.6125 36.4395 46.2817C36.391 45.9502 36.0913 45.7228 35.7702 45.7728C35.4488 45.8228 35.2279 46.1321 35.2764 46.4629C35.3252 46.794 35.6248 47.0217 35.9463 46.9718ZM35.4112 47.875C35.0496 47.9314 34.8003 48.2788 34.8551 48.6524C34.9098 49.0254 35.2474 49.282 35.609 49.2256C35.971 49.1692 36.2202 48.8211 36.1655 48.4481C36.1108 48.0749 35.7729 47.8186 35.4112 47.875ZM35.0522 49.9769C34.6497 50.0394 34.3728 50.4266 34.4341 50.8417C34.4951 51.2567 34.8702 51.5419 35.2728 51.479C35.6753 51.4165 35.9519 51.0293 35.8912 50.6142C35.8299 50.1992 35.4547 49.914 35.0522 49.9769ZM34.6935 52.0787C34.2498 52.1477 33.9455 52.574 34.0128 53.0309C34.08 53.4878 34.4931 53.8019 34.9362 53.7325C35.3792 53.6632 35.6842 53.2372 35.6169 52.7803C35.5497 52.3235 35.1363 52.0094 34.6935 52.0787ZM38.7152 42.7038C38.8471 42.6827 38.9387 42.5556 38.9186 42.4193C38.8985 42.283 38.7749 42.1885 38.6427 42.2095C38.5101 42.2299 38.4191 42.3577 38.4393 42.4941C38.4594 42.6304 38.583 42.7242 38.7152 42.7038ZM38.3707 44.9641C38.551 44.9359 38.6753 44.7622 38.6479 44.5759C38.6209 44.3899 38.4524 44.2618 38.2715 44.2896C38.0911 44.3178 37.9668 44.4916 37.9945 44.6779C38.0219 44.8641 38.1903 44.9923 38.3707 44.9641ZM37.9012 46.3704C37.6728 46.4058 37.5152 46.626 37.5501 46.8616C37.5844 47.0969 37.798 47.2594 38.0265 47.2233C38.2546 47.188 38.4122 46.968 38.3773 46.7325C38.3423 46.4969 38.1294 46.3351 37.9012 46.3704ZM37.53 48.4505C37.2534 48.4937 37.0632 48.7602 37.1051 49.0451C37.1469 49.3306 37.4051 49.5268 37.682 49.4836C37.9586 49.4404 38.1488 49.1746 38.1069 48.889C38.0651 48.6042 37.8066 48.4077 37.53 48.4505ZM37.1591 50.5313C36.8347 50.5816 36.6112 50.8944 36.6603 51.2292C36.7095 51.564 37.0121 51.7945 37.3375 51.7442C37.6619 51.6936 37.8854 51.3811 37.8363 51.046C37.7872 50.7108 37.4839 50.4806 37.1591 50.5313ZM36.7883 52.6117C36.4154 52.6702 36.1592 53.0292 36.2156 53.413C36.272 53.7978 36.6201 54.0619 36.9927 54.0035C37.3652 53.9457 37.622 53.587 37.5653 53.2026C37.5093 52.8181 37.1608 52.5536 36.7883 52.6117ZM40.8254 42.8629C40.8726 42.8554 40.9045 42.8102 40.8979 42.7613C40.8907 42.7127 40.8469 42.6793 40.7997 42.6868C40.7526 42.694 40.7199 42.7395 40.7268 42.7881C40.7338 42.8367 40.7776 42.87 40.8254 42.8629ZM40.6349 44.9223C40.6197 44.8193 40.5264 44.7479 40.4262 44.7635C40.327 44.7792 40.2574 44.8757 40.2726 44.9787C40.2877 45.082 40.381 45.1527 40.4809 45.1371C40.5808 45.1211 40.6497 45.0253 40.6349 44.9223ZM40.0533 46.8406C39.9004 46.864 39.7952 47.0115 39.8183 47.1693C39.8417 47.3263 39.9844 47.4348 40.1371 47.4113C40.2897 47.3875 40.3949 47.2403 40.3718 47.0826C40.3487 46.9249 40.206 46.8171 40.0533 46.8406ZM39.6801 48.9173C39.4744 48.9496 39.333 49.1477 39.3643 49.3592C39.3953 49.5713 39.5872 49.7175 39.7926 49.6855C39.9983 49.6532 40.1397 49.4554 40.1087 49.2433C40.0777 49.0311 39.8859 48.8853 39.6801 48.9173ZM39.307 50.9943C39.0488 51.0348 38.8711 51.2839 38.91 51.5501C38.9489 51.8163 39.1906 51.9998 39.4487 51.9594C39.7072 51.9193 39.8849 51.6704 39.846 51.4043C39.8067 51.1377 39.5654 50.9542 39.307 50.9943ZM38.9341 53.0713C38.6229 53.1199 38.4086 53.4194 38.4557 53.7403C38.5029 54.0612 38.793 54.2822 39.1045 54.2336C39.4157 54.1846 39.63 53.8858 39.5829 53.5643C39.5357 53.2437 39.2456 53.0231 38.9341 53.0713ZM42.5852 45.2462C42.5381 45.2534 42.5058 45.2989 42.513 45.3475C42.5199 45.3961 42.5638 45.4295 42.6109 45.422C42.6584 45.4148 42.6907 45.3696 42.6838 45.3207C42.6765 45.2721 42.632 45.2384 42.5852 45.2462ZM42.1965 47.3178C42.09 47.3341 42.0169 47.4368 42.033 47.5466C42.0492 47.6564 42.1487 47.7315 42.2549 47.7152C42.361 47.6982 42.4345 47.5962 42.4181 47.4861C42.4022 47.3766 42.3027 47.3019 42.1965 47.3178ZM41.8075 49.3898C41.642 49.4156 41.5279 49.575 41.553 49.746C41.5781 49.9167 41.7327 50.0346 41.8988 50.0081C42.0643 49.9826 42.1784 49.8229 42.153 49.6522C42.128 49.4816 41.9733 49.3643 41.8075 49.3898ZM41.4188 51.4621C41.1937 51.4971 41.039 51.7136 41.073 51.9454C41.107 52.1773 41.317 52.3367 41.5418 52.3021C41.7666 52.2667 41.9216 52.0505 41.8876 51.8183C41.8537 51.5865 41.6437 51.4267 41.4188 51.4621ZM41.0301 53.534C40.746 53.5785 40.5505 53.8518 40.5937 54.1452C40.6365 54.4379 40.9019 54.6398 41.1857 54.5953C41.4699 54.5508 41.6658 54.2774 41.6226 53.9841C41.5794 53.691 41.3143 53.4898 41.0301 53.534ZM23.1679 51.3111C23.1023 51.4461 23.0109 51.5671 22.9012 51.6681C22.3984 51.1112 21.8828 50.5296 21.4364 50.001C21.4054 49.9724 21.3744 49.9435 21.3438 49.9153C21.1826 49.7685 21.024 49.6203 20.8687 49.4693C20.8513 49.4523 20.8338 49.436 20.8166 49.4197L20.7273 49.7929C20.7273 49.7929 20.5064 51.8346 19.5507 49.8147C19.4881 49.6825 19.4231 49.5441 19.3572 49.402C18.8538 48.3196 18.265 46.9915 17.7945 45.8935C17.7945 45.8935 17.634 45.5168 17.5601 45.3414C17.4546 45.1697 17.3508 44.9967 17.2506 44.8227L17.0023 45.3282C17.0023 45.3282 16.3298 46.9595 16.0179 45.0514C15.768 43.5234 15.3602 41.2907 15.1522 39.8167C15.113 39.6756 15.0747 39.5342 15.0378 39.3924L14.5387 39.9554C14.5387 39.9554 13.4877 41.2747 13.7501 39.1004C13.9427 37.5126 14.1431 35.3036 14.328 33.9007C14.3277 33.7865 14.3284 33.6729 14.3297 33.5591L13.8461 33.8147C13.8461 33.8147 12.4921 34.7373 13.2098 32.8384C13.7475 31.4161 14.5278 29.3859 15.0853 28.0775C15.114 27.9721 15.142 27.8674 15.172 27.7627L14.692 27.8654C14.692 27.8654 13.1874 28.2937 14.1774 26.9081C15.0629 25.669 16.4353 23.834 17.3544 22.6881C17.4075 22.5983 17.4606 22.5083 17.5153 22.4185L16.4096 22.2897C16.4096 22.2897 15.378 22.1166 16.8237 21.0173C18.1364 20.0185 20.0284 18.7013 21.1351 17.9316L19.9743 17.6141C19.9743 17.6141 18.8732 17.3493 20.096 16.8591C21.658 16.2329 24.4035 15.1169 25.8481 14.6243L24.4912 13.6123C24.4912 13.6123 23.7791 13.1344 25.1551 13.0664C26.8434 12.9824 29.7442 12.8335 31.2339 12.7683L31.2247 12.772C31.2316 12.7706 31.2379 12.7693 31.2445 12.7679L30.2673 11.5608C30.2673 11.5608 29.399 10.6222 30.8004 10.991C32.5154 11.4425 35.4363 12.101 36.9073 12.4606L36.1622 10.9955C36.1622 10.9955 35.4102 9.6561 36.6059 10.3904C38.1943 11.3657 41.0816 12.961 42.4504 13.7459L41.9156 11.3827C41.9156 11.3827 41.4498 9.69112 42.6798 11.1318C44.0549 12.7417 46.3313 15.3912 47.4073 16.509C48.7184 17.5407 49.6586 19.0765 49.925 20.8905C50.469 24.5989 47.9948 28.0598 44.3984 28.6207C42.4843 28.9195 40.6382 28.3359 39.2476 27.1658C37.682 26.1351 35.8302 25.7258 33.9765 26.0147C31.9483 26.3312 30.1612 27.4428 28.9437 29.1453C27.4243 31.2709 27.0926 33.9269 27.8199 36.2684C27.9135 36.5692 28.0249 36.8646 28.1535 37.1536C28.1584 37.1652 28.1634 37.1757 28.1687 37.1872C28.4753 37.8692 28.8781 38.5113 29.3739 39.0899C29.2081 39.3017 28.9734 39.4564 28.6968 39.5124C28.9823 39.6858 29.1929 39.9853 29.2464 40.349C29.3403 40.9912 28.9121 41.5898 28.29 41.687C28.2877 41.6874 28.2857 41.6874 28.2831 41.6877C28.589 41.8519 28.8175 42.1589 28.8728 42.5372C28.9655 43.1675 28.5451 43.7552 27.9339 43.8504C27.9079 43.8549 27.8818 43.8566 27.8558 43.8583C28.1884 44.0099 28.4416 44.3267 28.5 44.7248C28.5906 45.3431 28.1779 45.9207 27.5785 46.0142C27.5185 46.0233 27.4602 46.0261 27.4022 46.0254C27.7737 46.1532 28.0645 46.4857 28.1268 46.9126C28.2158 47.5191 27.811 48.0854 27.2225 48.1775C26.6667 48.2646 26.1465 47.8964 26.0156 47.344C25.8593 47.6381 25.5919 47.8655 25.2606 47.9552C25.5105 48.1354 25.6912 48.4158 25.7403 48.7514C25.7433 48.7724 25.7446 48.7932 25.7466 48.8146C25.8896 48.4896 26.1834 48.2428 26.5503 48.1857C27.1279 48.0956 27.6662 48.5052 27.7536 49.1001C27.8413 49.6957 27.444 50.2512 26.8668 50.3409C26.2895 50.4307 25.7508 50.0217 25.6638 49.4265C25.6618 49.4156 25.6618 49.4051 25.6605 49.3939C25.5085 49.7617 25.1825 50.0425 24.7707 50.1071C24.7625 50.1084 24.7539 50.1084 24.745 50.1094C25.0477 50.2699 25.2741 50.5714 25.3289 50.945C25.4195 51.5617 25.0074 52.1379 24.4094 52.231C23.8209 52.3228 23.2711 51.9125 23.1679 51.3111ZM24.2792 47.7856C24.0834 47.6513 23.9271 47.4603 23.8331 47.2305C23.6897 47.4147 23.4995 47.5609 23.276 47.6445C23.4517 47.7992 23.5852 48.0059 23.6528 48.2469C23.8008 48.029 24.0187 47.8631 24.2792 47.7856ZM24.5053 45.5811C24.3679 45.4669 24.2535 45.3237 24.1711 45.1585C24.0504 45.2931 23.903 45.4026 23.7365 45.4794C23.8612 45.6066 23.9614 45.7606 24.027 45.9346C24.1536 45.7803 24.3161 45.6579 24.5053 45.5811ZM24.747 43.3786C24.6553 43.2899 24.5749 43.1879 24.51 43.0747C24.415 43.1685 24.3072 43.2494 24.1882 43.3126C24.2719 43.4095 24.3428 43.5187 24.3975 43.639C24.4981 43.534 24.6155 43.4449 24.747 43.3786ZM25.0018 41.1802C24.9461 41.1197 24.896 41.0541 24.8508 40.9844C24.7836 41.0449 24.7107 41.0993 24.6329 41.1472C24.6827 41.2115 24.7269 41.2808 24.7661 41.3539C24.8377 41.2873 24.9168 41.2291 25.0018 41.1802ZM25.2623 38.9804C25.2118 38.9196 25.166 38.8547 25.1248 38.7857C25.0879 38.823 25.0503 38.8611 25.0134 38.8985C25.0579 38.9536 25.0994 39.0127 25.1363 39.0746C25.1762 39.0409 25.2181 39.0093 25.2623 38.9804ZM27.0702 45.9689C26.7504 45.8602 26.49 45.6028 26.3769 45.2646C26.2289 45.5039 26.0073 45.6939 25.7386 45.7942C25.9401 45.9713 26.0858 46.2168 26.1405 46.5023C26.3001 46.2307 26.5714 46.0315 26.9001 45.9802C26.9571 45.971 27.0138 45.9686 27.0702 45.9689ZM27.3217 43.7668C27.0662 43.6519 26.8566 43.4408 26.7422 43.1702C26.6063 43.3674 26.4201 43.5271 26.1995 43.6288C26.3555 43.7882 26.4732 43.9891 26.5332 44.2186C26.7 43.9871 26.9518 43.8209 27.2505 43.7743C27.2739 43.7705 27.2977 43.7688 27.3217 43.7668ZM27.599 41.5687C27.3916 41.4589 27.2199 41.2842 27.1098 41.067C26.9881 41.2298 26.8325 41.3655 26.6518 41.4623C26.7718 41.6017 26.8651 41.7673 26.9228 41.9525C27.0913 41.7533 27.3254 41.6116 27.599 41.5687ZM27.8914 39.3751C27.7233 39.2745 27.5809 39.1321 27.4787 38.9583C27.3718 39.0919 27.2429 39.2062 27.0956 39.2959C27.1872 39.4142 27.263 39.5471 27.3151 39.694C27.4681 39.5362 27.6656 39.4227 27.8914 39.3751ZM22.0424 47.4314C21.9049 47.3172 21.7902 47.174 21.7077 47.0088C21.5871 47.1434 21.4401 47.2532 21.2736 47.3301C21.3979 47.4569 21.4977 47.6105 21.5637 47.7853C21.6906 47.6309 21.8531 47.5082 22.0424 47.4314ZM22.2837 45.2292C22.1917 45.1409 22.1119 45.0389 22.0466 44.9257C21.952 45.0195 21.8439 45.1001 21.7252 45.1636C21.8086 45.2602 21.8795 45.3693 21.9346 45.4896C22.0354 45.3846 22.1525 45.2952 22.2837 45.2292ZM22.5385 43.0305C22.4835 42.97 22.433 42.9047 22.3875 42.835C22.3199 42.8955 22.2474 42.9499 22.1699 42.9972C22.2197 43.0618 22.2639 43.1311 22.3031 43.2042C22.3747 43.1376 22.4531 43.0798 22.5385 43.0305ZM23.275 50.5289C23.4313 50.2202 23.722 50.2104 24.0814 49.8705L24.0847 49.8705C23.8111 49.8705 23.5945 49.5397 23.4979 49.2239C23.338 49.4727 23.093 49.6624 22.7976 49.7423C23.0449 49.9211 23.2239 50.1978 23.275 50.5289ZM27.1051 53.5626C27.0174 52.9656 26.4774 52.555 25.8985 52.6457C25.406 52.7226 25.0457 53.1376 25.0028 53.6282C25.3763 53.6526 25.4522 53.1315 25.466 52.848C25.7663 53.0108 26.069 53.1645 26.3739 53.3103C26.611 53.4711 26.8599 53.6363 27.114 53.8019C27.1193 53.7237 27.117 53.6438 27.1051 53.5626ZM29.1211 53.9195C29.0396 53.3637 28.5372 52.9816 27.9979 53.0656C27.5845 53.1301 27.271 53.4514 27.1839 53.8478C27.7144 54.1935 28.2646 54.5395 28.7762 54.8523C29.0324 54.632 29.1748 54.2842 29.1211 53.9195ZM31.1374 54.2764C31.0615 53.7618 30.5957 53.4082 30.0976 53.4864C29.5984 53.5643 29.2553 54.0442 29.3311 54.5582C29.4066 55.0729 29.8724 55.4261 30.3705 55.3483C30.596 55.3129 30.7886 55.1956 30.9264 55.0301C30.9119 54.9631 30.8947 54.8992 30.8776 54.8434C30.929 54.8543 30.9808 54.8638 31.0319 54.874C31.1265 54.6986 31.1683 54.4906 31.1374 54.2764ZM33.1526 54.6334C33.0834 54.1605 32.6548 53.8348 32.1966 53.9062C31.7374 53.978 31.4219 54.4199 31.4914 54.8924C31.495 54.9176 31.5003 54.942 31.5063 54.9668C31.6813 54.9985 31.8567 55.0284 32.0327 55.0552C32.3298 55.148 32.64 55.2419 32.9538 55.334C33.1108 55.1491 33.1912 54.8958 33.1526 54.6334ZM35.1686 54.9906C35.1056 54.5586 34.714 54.2615 34.2956 54.3267C33.8769 54.3923 33.5885 54.7952 33.6521 55.2269C33.6712 55.3585 33.7213 55.4768 33.7925 55.577C34.107 55.6668 34.4156 55.7535 34.7103 55.8357C35.0245 55.6984 35.2223 55.3551 35.1686 54.9906ZM36.3946 54.7472C36.0162 54.8064 35.7554 55.1708 35.8124 55.5617C35.8698 55.952 36.2232 56.2209 36.6023 56.1624C36.6505 56.1549 36.6969 56.1417 36.7408 56.1254C36.9765 55.9306 36.756 55.4893 36.5957 55.2337C36.7777 55.2204 36.9587 55.2034 37.14 55.1847C37.0223 54.8856 36.718 54.6966 36.3946 54.7472ZM43.5752 51.9478C43.3942 51.9757 43.2699 52.1501 43.297 52.3367C43.3247 52.5233 43.4935 52.6512 43.6744 52.6233C43.8554 52.5947 43.9797 52.421 43.952 52.2341C43.925 52.0478 43.7555 51.9196 43.5752 51.9478ZM45.7293 52.4152C45.5997 52.4356 45.5111 52.5601 45.5302 52.693C45.5397 52.7576 45.574 52.8116 45.6202 52.8487C45.6693 52.8881 45.7329 52.9082 45.7992 52.8976C45.8875 52.884 45.9545 52.8198 45.9835 52.7389C45.9963 52.7018 46.0042 52.6617 45.9983 52.6196C45.9785 52.4866 45.8579 52.3952 45.7293 52.4152ZM46.0896 50.3572C46.0273 50.3668 45.9841 50.4273 45.9937 50.4919C46.0026 50.5568 46.0616 50.601 46.1242 50.5918C46.1869 50.5816 46.2301 50.5218 46.2205 50.4568C46.2116 50.3916 46.1529 50.3474 46.0896 50.3572ZM43.9458 49.8599C43.8093 49.8813 43.7153 50.0125 43.7358 50.1533C43.7562 50.294 43.8838 50.3909 44.0203 50.3698C44.1568 50.3487 44.2507 50.2169 44.2303 50.0761C44.2098 49.9357 44.0823 49.8385 43.9458 49.8599ZM44.3166 47.8196C44.2636 47.8277 44.2273 47.8787 44.2352 47.9331C44.2431 47.9872 44.2926 48.0252 44.3457 48.0164C44.3977 48.0086 44.4347 47.9576 44.4261 47.9032C44.4182 47.8488 44.3694 47.8114 44.3166 47.8196Z" fill="white"/>
</svg>
