<svg width="192" height="50" viewBox="0 0 192 50" fill="none" xmlns="http://www.w3.org/2000/svg">
<path d="M7.38501 36.8969C7.37159 36.9095 7.35816 36.9217 7.34473 36.9346C7.35816 36.9221 7.37159 36.9099 7.38501 36.8969ZM15.6133 28.9168C15.7182 28.8311 15.8257 28.7487 15.9302 28.6659C15.8246 28.7491 15.719 28.8304 15.6133 28.9168ZM13.3479 31.1035C13.3073 31.1442 13.2659 31.1856 13.2253 31.2262C13.2659 31.1852 13.3069 31.1442 13.3479 31.1035ZM13.12 46.7042C13.026 46.0698 12.4442 45.6338 11.8211 45.7291C11.7242 45.7443 11.6331 45.7723 11.5467 45.8097C11.7935 46.0764 12.0287 46.3303 12.2432 46.562C12.6039 46.9525 12.8772 47.1447 13.0841 47.2104C13.1309 47.0512 13.1458 46.8797 13.12 46.7042ZM14.5322 43.7183C13.909 43.814 13.4811 44.4063 13.5744 45.0404C13.6695 45.6744 14.2505 46.1108 14.8737 46.0151C15.4968 45.9194 15.9255 45.3275 15.8315 44.693C15.7375 44.0582 15.1553 43.6226 14.5322 43.7183ZM17.9477 33.6512C18.0363 34.2461 18.5814 34.6559 19.1657 34.5654C19.75 34.476 20.1521 33.9202 20.0639 33.3257C20.0534 33.2518 20.0349 33.1809 20.011 33.114C19.8585 32.6898 19.46 32.4027 19.0133 32.4001C18.9581 32.3997 18.9022 32.4027 18.846 32.4116C18.2616 32.5013 17.8595 33.0563 17.9477 33.6512ZM18.7799 36.9546C19.3722 36.8633 19.7794 36.3009 19.6898 35.6983C19.5998 35.0952 19.0474 34.6807 18.4554 34.7716C17.8631 34.8628 17.4559 35.4256 17.5456 36.0282C17.6349 36.6309 18.188 37.0458 18.7799 36.9546ZM18.3941 39.3438C18.9937 39.251 19.4063 38.6809 19.3156 38.0705C19.2248 37.4597 18.6648 37.0396 18.0653 37.1319C17.4657 37.2243 17.0527 37.7941 17.1435 38.4052C17.2342 39.0157 17.7942 39.4358 18.3941 39.3438ZM18.0079 41.7319C18.6155 41.6384 19.0332 41.0612 18.9414 40.4427C18.8496 39.8241 18.2827 39.3985 17.6751 39.4919C17.0672 39.5858 16.6495 40.163 16.7413 40.7815C16.8331 41.4004 17.4004 41.8253 18.0079 41.7319ZM18.5672 42.8152C18.4743 42.1889 17.8998 41.7577 17.2843 41.8523C16.6695 41.9473 16.2463 42.5322 16.3392 43.1581C16.4321 43.7848 17.0063 44.216 17.6214 44.121C18.2366 44.0261 18.6601 43.4415 18.5672 42.8152ZM16.8941 44.2127C16.2706 44.3084 15.8424 44.9003 15.9364 45.5348C16.0303 46.1692 16.6121 46.6056 17.2353 46.5095C17.8584 46.4134 18.287 45.8219 18.1927 45.1874C18.0987 44.553 17.5173 44.117 16.8941 44.2127ZM20.461 33.9997C20.5354 34.4996 20.9934 34.8436 21.4837 34.7679C21.8623 34.7095 22.149 34.4183 22.2266 34.0588C21.6586 33.9095 21.1008 33.6974 20.563 33.4221C20.4711 33.5921 20.4298 33.7931 20.461 33.9997ZM21.0968 37.15C21.5919 37.0736 21.9327 36.6035 21.8579 36.0992C21.7828 35.5955 21.3211 35.2486 20.8257 35.3247C20.3307 35.4012 19.9899 35.8712 20.0647 36.3756C20.1402 36.8799 20.6022 37.2262 21.0968 37.15ZM19.6691 38.7511C19.7446 39.2595 20.2106 39.6091 20.71 39.5322C21.209 39.4554 21.5527 38.9813 21.4768 38.4729C21.4017 37.9644 20.9357 37.6149 20.4363 37.6917C19.9373 37.7686 19.5936 38.243 19.6691 38.7511ZM20.0472 40.0584C19.5431 40.136 19.1973 40.6145 19.2731 41.1274C19.3493 41.6398 19.819 41.9924 20.3231 41.9151C20.8265 41.8375 21.1731 41.359 21.0968 40.8462C21.0206 40.3333 20.5503 39.9808 20.0472 40.0584ZM19.6575 42.4254C19.1497 42.503 18.8006 42.9859 18.8772 43.5025C18.9541 44.0194 19.4281 44.3753 19.9358 44.2969C20.4432 44.2186 20.7927 43.7364 20.7161 43.2191C20.6392 42.7029 20.1652 42.3471 19.6575 42.4254ZM19.268 44.7921C18.7563 44.8711 18.4032 45.3578 18.4812 45.8788C18.5589 46.3998 19.0365 46.7585 19.5486 46.6798C20.0603 46.6004 20.4127 46.1145 20.3354 45.5931C20.2581 45.0718 19.7801 44.713 19.268 44.7921ZM23.699 35.0007C24.0416 34.9478 24.2946 34.6685 24.3349 34.3344C23.833 34.3337 23.3303 34.2879 22.8327 34.1962C22.8298 34.2487 22.832 34.3019 22.84 34.3559C22.9024 34.7756 23.2868 35.0642 23.699 35.0007ZM23.3201 37.3954C23.7477 37.3296 24.0413 36.9239 23.977 36.4886C23.9124 36.0537 23.5136 35.7548 23.0861 35.8206C22.6589 35.8863 22.3653 36.2924 22.4295 36.7273C22.4945 37.1622 22.893 37.4619 23.3201 37.3954ZM22.9412 39.7909C23.3837 39.7229 23.6885 39.3024 23.6214 38.8523C23.5542 38.4015 23.1416 38.0915 22.6988 38.1599C22.2564 38.2282 21.9523 38.6487 22.0194 39.0988C22.0865 39.5488 22.4992 39.8589 22.9412 39.7909ZM23.2661 41.2146C23.1971 40.749 22.7699 40.4286 22.3123 40.4988C21.8546 40.5694 21.54 41.0043 21.6093 41.4699C21.6782 41.9355 22.1047 42.2562 22.5627 42.1856C23.0204 42.1154 23.3347 41.6805 23.2661 41.2146ZM21.925 42.8389C21.4525 42.9113 21.1273 43.3606 21.1988 43.8417C21.2703 44.3228 21.7113 44.6535 22.1842 44.5807C22.6563 44.5079 22.9815 44.0593 22.91 43.5783C22.8385 43.0972 22.3976 42.7657 21.925 42.8389ZM21.5382 45.1782C21.0504 45.2528 20.7147 45.7166 20.7887 46.2128C20.8627 46.7098 21.3175 47.0512 21.8056 46.9762C22.2931 46.9008 22.6288 46.4371 22.5547 45.9408C22.4807 45.4446 22.0259 45.1024 21.5382 45.1782ZM25.4513 34.6892C25.4912 34.9582 25.738 35.1433 26.0022 35.1026C26.2668 35.062 26.4482 34.8107 26.4083 34.5414C26.3804 34.354 26.2508 34.2092 26.086 34.1512C26.0149 34.1264 25.9372 34.1157 25.8574 34.1279C25.7666 34.1419 25.6872 34.1818 25.6215 34.2376C25.4959 34.3444 25.4251 34.5122 25.4513 34.6892ZM25.6313 37.5521C25.9405 37.5048 26.1532 37.211 26.1063 36.8969C26.0595 36.5821 25.771 36.3656 25.4625 36.4133C25.154 36.4609 24.941 36.7547 24.9878 37.0687C25.0346 37.3836 25.3228 37.6001 25.6313 37.5521ZM25.2611 40.0015C25.6146 39.9475 25.8577 39.6109 25.804 39.2514C25.7507 38.8911 25.4208 38.6439 25.0673 38.6983C24.7134 38.7526 24.4703 39.0888 24.5236 39.4483C24.5773 39.8082 24.9072 40.0558 25.2611 40.0015ZM24.6721 40.9832C24.2739 41.0446 23.9995 41.4222 24.0598 41.8283C24.12 42.2336 24.4917 42.5126 24.8898 42.4513C25.2883 42.3899 25.5627 42.0116 25.5024 41.6062C25.4422 41.2005 25.0702 40.9219 24.6721 40.9832ZM24.2768 43.2679C23.8337 43.3359 23.5288 43.7567 23.5963 44.2079C23.6635 44.659 24.0765 44.9691 24.5196 44.9007C24.9628 44.8327 25.2673 44.4118 25.2005 43.9607C25.133 43.5095 24.72 43.1995 24.2768 43.2679ZM23.882 45.5525C23.3935 45.6275 23.0585 46.0909 23.1325 46.5875C23.2065 47.0841 23.6613 47.4255 24.1491 47.3501C24.6368 47.2747 24.9726 46.8118 24.8985 46.3151C24.8245 45.8185 24.3694 45.4771 23.882 45.5525ZM28.3093 35.3624C28.4545 35.3395 28.5554 35.2013 28.5333 35.0531C28.5111 34.9049 28.375 34.8022 28.2295 34.8251C28.0836 34.8473 27.9834 34.9862 28.0056 35.1344C28.0277 35.2826 28.1638 35.3846 28.3093 35.3624ZM27.9301 37.8192C28.1286 37.7885 28.2654 37.5997 28.2353 37.3972C28.2055 37.1951 28.0201 37.0558 27.8208 37.0861C27.6223 37.1168 27.4855 37.3056 27.516 37.5081C27.5461 37.7106 27.7315 37.8499 27.9301 37.8192ZM27.4133 39.3478C27.1617 39.3863 26.9883 39.6257 27.0267 39.8818C27.0645 40.1375 27.2997 40.3141 27.5512 40.2749C27.8023 40.2365 27.9758 39.9974 27.9373 39.7414C27.8989 39.4853 27.6644 39.3094 27.4133 39.3478ZM27.0046 41.6088C26.7001 41.6557 26.4907 41.9454 26.5368 42.2551C26.5829 42.5655 26.867 42.7787 27.1719 42.7317C27.4764 42.6848 27.6858 42.3958 27.6397 42.0855C27.5936 41.7758 27.3091 41.5623 27.0046 41.6088ZM26.5963 43.8705C26.2392 43.9252 25.9931 44.2652 26.0472 44.6291C26.1013 44.9931 26.4344 45.2436 26.7926 45.1889C27.1498 45.1339 27.3958 44.7943 27.3418 44.43C27.2877 44.0656 26.9538 43.8155 26.5963 43.8705ZM26.188 46.1319C25.7775 46.1954 25.4955 46.5856 25.5576 47.0028C25.6197 47.4211 26.0029 47.7082 26.413 47.6446C26.8231 47.5818 27.1059 47.192 27.0434 46.7741C26.9817 46.3562 26.5981 46.0687 26.188 46.1319ZM30.6324 35.5353C30.6843 35.5272 30.7195 35.478 30.7123 35.4248C30.7043 35.372 30.656 35.3358 30.6041 35.3439C30.5522 35.3517 30.5163 35.4012 30.5239 35.454C30.5315 35.5069 30.5798 35.5431 30.6324 35.5353ZM30.4227 37.7738C30.406 37.6618 30.3033 37.5842 30.1929 37.6012C30.0837 37.6182 30.0071 37.7231 30.0238 37.8351C30.0405 37.9474 30.1432 38.0243 30.2532 38.0073C30.3631 37.9899 30.439 37.8857 30.4227 37.7738ZM29.7825 39.8589C29.6141 39.8843 29.4983 40.0447 29.5237 40.2162C29.5495 40.3869 29.7066 40.5047 29.8746 40.4792C30.0427 40.4534 30.1584 40.2934 30.133 40.1219C30.1076 39.9505 29.9505 39.8334 29.7825 39.8589ZM29.3716 42.1161C29.1451 42.1512 28.9895 42.3667 29.0239 42.5965C29.058 42.8271 29.2693 42.9859 29.4954 42.9512C29.7218 42.9161 29.8775 42.7011 29.8434 42.4705C29.8093 42.2399 29.5981 42.0814 29.3716 42.1161ZM28.9608 44.3738C28.6766 44.4178 28.481 44.6886 28.5238 44.9779C28.5666 45.2672 28.8327 45.4668 29.1168 45.4228C29.4014 45.3792 29.597 45.1087 29.5542 44.8194C29.511 44.5297 29.2453 44.3302 28.9608 44.3738ZM28.5503 46.6314C28.2077 46.6843 27.9718 47.0098 28.0237 47.3586C28.0756 47.7074 28.395 47.9476 28.7379 47.8948C29.0806 47.8416 29.3165 47.5168 29.2646 47.1672C29.2127 46.8188 28.8933 46.579 28.5503 46.6314ZM32.5698 38.1259C32.5179 38.1337 32.4823 38.1832 32.4903 38.236C32.4979 38.2888 32.5462 38.3251 32.5981 38.3169C32.6503 38.3092 32.6859 38.26 32.6783 38.2068C32.6703 38.154 32.6213 38.1174 32.5698 38.1259ZM32.1419 40.3776C32.0246 40.3954 31.9441 40.507 31.9618 40.6263C31.9796 40.7457 32.0892 40.8273 32.2061 40.8096C32.323 40.7911 32.4039 40.6803 32.3857 40.5605C32.3683 40.4416 32.2587 40.3603 32.1419 40.3776ZM31.7136 42.6297C31.5314 42.6578 31.4058 42.8311 31.4334 43.017C31.461 43.2025 31.6312 43.3307 31.8141 43.3019C31.9963 43.2742 32.1219 43.1005 32.0939 42.915C32.0664 42.7295 31.8962 42.602 31.7136 42.6297ZM31.2857 44.8822C31.0378 44.9203 30.8676 45.1557 30.905 45.4077C30.9424 45.6597 31.1736 45.8329 31.4211 45.7953C31.6686 45.7568 31.8392 45.5218 31.8018 45.2695C31.7644 45.0175 31.5332 44.8438 31.2857 44.8822ZM30.8578 47.1343C30.545 47.1827 30.3298 47.4798 30.3773 47.7987C30.4245 48.1168 30.7166 48.3363 31.0291 48.2879C31.342 48.2395 31.5575 47.9424 31.51 47.6236C31.4625 47.305 31.1707 47.0863 30.8578 47.1343ZM11.1936 44.7182C11.1214 44.8649 11.0208 44.9964 10.9 45.1061C10.3465 44.5009 9.7789 43.8687 9.28749 43.2941C9.25337 43.2631 9.21926 43.2317 9.1855 43.201C9.00803 43.0414 8.83347 42.8803 8.66253 42.7162C8.64329 42.6977 8.62405 42.68 8.60518 42.6623L8.50683 43.068C8.50683 43.068 8.26367 45.2872 7.21154 43.0916C7.14258 42.9479 7.07108 42.7975 6.99849 42.643C6.4443 41.4666 5.79611 40.0229 5.27821 38.8294C5.27821 38.8294 5.10146 38.42 5.02017 38.2294C4.90403 38.0428 4.78971 37.8547 4.67938 37.6655L4.40609 38.2149C4.40609 38.2149 3.66572 39.9882 3.32239 37.9142C3.04729 36.2533 2.59834 33.8264 2.36933 32.2242C2.32615 32.0709 2.28405 31.9172 2.2434 31.7631L1.69392 32.375C1.69392 32.375 0.536907 33.809 0.825798 31.4457C1.03775 29.7197 1.25841 27.3187 1.46201 25.7938C1.46165 25.6696 1.46238 25.5462 1.46383 25.4224L0.931411 25.7003C0.931411 25.7003 -0.559139 26.7031 0.230957 24.6391C0.822895 23.0931 1.68195 20.8864 2.29566 19.4642C2.32723 19.3497 2.35808 19.2359 2.39111 19.1221L1.86269 19.2337C1.86269 19.2337 0.206277 19.6992 1.29615 18.1932C2.27098 16.8463 3.78185 14.8518 4.7937 13.6062C4.85213 13.5086 4.91056 13.4107 4.97081 13.3132L3.75355 13.1731C3.75355 13.1731 2.61794 12.985 4.20938 11.7901C5.65457 10.7045 7.73742 9.27266 8.95577 8.43611L7.6779 8.09099C7.6779 8.09099 6.46572 7.80315 7.81182 7.27033C9.53138 6.58971 12.5539 5.37664 14.1442 4.84123L12.6504 3.74122C12.6504 3.74122 11.8665 3.2217 13.3813 3.1478C15.2399 3.05654 18.4333 2.8947 20.0734 2.82375L20.0632 2.82782C20.0708 2.82634 20.0777 2.82486 20.085 2.82338L19.0093 1.51128C19.0093 1.51128 18.0533 0.491091 19.5961 0.892C21.4841 1.3827 24.6996 2.09842 26.319 2.48935L25.4988 0.896803C25.4988 0.896803 24.671 -0.559032 25.9873 0.239091C27.7359 1.29919 30.9144 3.03326 32.4213 3.88644L31.8326 1.31766C31.8326 1.31766 31.3198 -0.520973 32.6739 1.04497C34.1877 2.79493 36.6937 5.67482 37.8783 6.88974C39.3217 8.01118 40.3568 9.68059 40.65 11.6522C41.2488 15.6831 38.5251 19.445 34.5659 20.0547C32.4587 20.3795 30.4263 19.7451 28.8955 18.4732C27.1719 17.3529 25.1333 16.908 23.0926 17.2221C20.8598 17.5661 18.8924 18.7744 17.5521 20.6248C15.8794 22.9353 15.5143 25.8222 16.3149 28.3674C16.418 28.6944 16.5406 29.0155 16.6822 29.3295C16.6876 29.3421 16.6931 29.3536 16.6989 29.3661C17.0364 30.1073 17.4799 30.8053 18.0257 31.4342C17.8432 31.6644 17.5848 31.8325 17.2803 31.8935C17.5946 32.082 17.8265 32.4075 17.8853 32.8029C17.9887 33.5008 17.5173 34.1515 16.8324 34.2572C16.8299 34.2576 16.8277 34.2576 16.8248 34.258C17.1616 34.4364 17.4131 34.7701 17.4741 35.1813C17.5761 35.8664 17.1133 36.5053 16.4405 36.6087C16.4118 36.6135 16.3831 36.6154 16.3544 36.6172C16.7206 36.782 16.9994 37.1264 17.0636 37.5591C17.1634 38.2312 16.709 38.859 16.0492 38.9606C15.9832 38.9706 15.9189 38.9735 15.8551 38.9728C16.2641 39.1117 16.5842 39.4731 16.6528 39.9372C16.7508 40.5964 16.3051 41.212 15.6573 41.3121C15.0454 41.4067 14.4727 41.0065 14.3286 40.4061C14.1565 40.7257 13.8622 40.9729 13.4975 41.0704C13.7726 41.2663 13.9714 41.5711 14.0255 41.9358C14.0288 41.9587 14.0302 41.9813 14.0324 42.0045C14.1899 41.6513 14.5133 41.383 14.9172 41.321C15.5531 41.2231 16.1458 41.6683 16.2419 42.3149C16.3385 42.9623 15.9011 43.5661 15.2657 43.6636C14.6302 43.7612 14.0371 43.3166 13.9413 42.6696C13.9392 42.6578 13.9392 42.6464 13.9377 42.6342C13.7704 43.034 13.4115 43.3392 12.9582 43.4094C12.9491 43.4109 12.9396 43.4109 12.9298 43.412C13.263 43.5864 13.5123 43.9141 13.5726 44.3202C13.6724 44.9905 13.2187 45.6168 12.5604 45.718C11.9126 45.8178 11.3072 45.3718 11.1936 44.7182ZM12.417 40.8861C12.2014 40.7401 12.0294 40.5325 11.926 40.2827C11.7681 40.4829 11.5587 40.6418 11.3126 40.7327C11.5061 40.9008 11.6531 41.1255 11.7275 41.3875C11.8904 41.1506 12.1303 40.9703 12.417 40.8861ZM12.666 38.4899C12.5147 38.3657 12.3887 38.2101 12.298 38.0306C12.1652 38.1769 12.0029 38.2959 11.8196 38.3794C11.9568 38.5176 12.0672 38.6849 12.1394 38.8741C12.2787 38.7064 12.4577 38.5734 12.666 38.4899ZM12.932 36.0959C12.8311 35.9994 12.7426 35.8886 12.6711 35.7655C12.5666 35.8675 12.4479 35.9554 12.3169 36.0242C12.409 36.1295 12.4871 36.2481 12.5473 36.3789C12.658 36.2647 12.7872 36.1679 12.932 36.0959ZM13.2126 33.7063C13.1512 33.6405 13.0961 33.5692 13.0463 33.4935C12.9723 33.5592 12.8921 33.6183 12.8064 33.6704C12.8613 33.7403 12.9099 33.8157 12.9531 33.8951C13.0318 33.8227 13.1189 33.7595 13.2126 33.7063ZM13.4993 31.3152C13.4438 31.2491 13.3933 31.1785 13.3479 31.1035C13.3073 31.1442 13.2659 31.1856 13.2253 31.2262C13.2743 31.2861 13.32 31.3503 13.3606 31.4176C13.4046 31.381 13.4506 31.3467 13.4993 31.3152ZM15.4896 38.9115C15.1375 38.7932 14.8508 38.5135 14.7263 38.1458C14.5634 38.406 14.3195 38.6125 14.0237 38.7215C14.2455 38.914 14.4059 39.1808 14.4661 39.4912C14.6418 39.196 14.9405 38.9794 15.3023 38.9236C15.3651 38.9137 15.4275 38.9111 15.4896 38.9115ZM15.7665 36.5178C15.4852 36.3929 15.2544 36.1635 15.1285 35.8693C14.9789 36.0837 14.7739 36.2573 14.5311 36.3678C14.7028 36.5411 14.8323 36.7595 14.8984 37.0089C15.082 36.7573 15.3593 36.5766 15.6881 36.526C15.7139 36.5219 15.74 36.52 15.7665 36.5178ZM16.0717 34.1286C15.8434 34.0093 15.6544 33.8194 15.5331 33.5832C15.3992 33.7602 15.2279 33.9077 15.029 34.013C15.1611 34.1645 15.2638 34.3444 15.3274 34.5458C15.5128 34.3293 15.7705 34.1752 16.0717 34.1286ZM16.3936 31.7442C16.2085 31.6349 16.0518 31.48 15.9393 31.2912C15.8217 31.4364 15.6798 31.5606 15.5175 31.6581C15.6184 31.7867 15.7019 31.9312 15.7592 32.0908C15.9276 31.9194 16.145 31.796 16.3936 31.7442ZM7.38501 36.8969C7.37159 36.9095 7.35816 36.9217 7.34473 36.9346C7.35816 36.9221 7.37159 36.9099 7.38501 36.8969ZM9.95455 40.501C9.80321 40.3769 9.67691 40.2213 9.58618 40.0418C9.45335 40.1881 9.29148 40.3074 9.1082 40.3909C9.24503 40.5288 9.35499 40.6958 9.42758 40.8857C9.56731 40.7179 9.74623 40.5846 9.95455 40.501ZM10.2202 38.1074C10.119 38.0113 10.0311 37.9005 9.95927 37.7775C9.85511 37.8794 9.73607 37.967 9.60542 38.0361C9.69724 38.141 9.77526 38.2597 9.83587 38.3905C9.94693 38.2763 10.0758 38.1791 10.2202 38.1074ZM10.5008 35.7175C10.4402 35.6517 10.3846 35.5808 10.3345 35.505C10.2601 35.5708 10.1803 35.6299 10.095 35.6813C10.1498 35.7515 10.1984 35.8269 10.2416 35.9063C10.3204 35.8339 10.4068 35.7711 10.5008 35.7175ZM11.3115 43.8679C11.4836 43.5324 11.8037 43.5217 12.1993 43.1522L12.2029 43.1522C11.9017 43.1522 11.6632 42.7927 11.5569 42.4494C11.3809 42.7199 11.1112 42.9261 10.786 43.0129C11.0582 43.2073 11.2553 43.508 11.3115 43.8679ZM15.5281 47.1654C15.4315 46.5165 14.837 46.0702 14.1997 46.1688C13.6575 46.2523 13.2608 46.7035 13.2137 47.2367C13.6249 47.2633 13.7083 46.6968 13.7236 46.3887C14.0542 46.5657 14.3874 46.7327 14.7231 46.8912C14.984 47.066 15.258 47.2456 15.5379 47.4255C15.5437 47.3405 15.5411 47.2537 15.5281 47.1654ZM17.7474 47.5533C17.6577 46.9492 17.1046 46.5339 16.5109 46.6252C16.0558 46.6954 15.7106 47.0445 15.6148 47.4754C16.1987 47.8512 16.8045 48.2273 17.3677 48.5673C17.6497 48.3278 17.8065 47.9498 17.7474 47.5533ZM19.967 47.9413C19.8836 47.3819 19.3707 46.9976 18.8224 47.0826C18.2729 47.1672 17.8951 47.689 17.9786 48.2476C18.0617 48.8071 18.5745 49.191 19.1229 49.1064C19.3711 49.0679 19.5831 48.9405 19.7348 48.7605C19.7188 48.6877 19.6999 48.6182 19.681 48.5577C19.7377 48.5695 19.7946 48.5798 19.8509 48.5909C19.9551 48.4002 20.0012 48.1741 19.967 47.9413ZM22.1856 48.3293C22.1094 47.8153 21.6376 47.4613 21.1331 47.5389C20.6276 47.6169 20.2802 48.0973 20.3568 48.6109C20.3608 48.6382 20.3666 48.6648 20.3732 48.6918C20.5659 48.7261 20.759 48.7587 20.9528 48.7878C21.2798 48.8887 21.6213 48.9907 21.9668 49.0908C22.1395 48.8898 22.2281 48.6146 22.1856 48.3293ZM24.4049 48.7176C24.3356 48.248 23.9045 47.9251 23.4439 47.996C22.983 48.0673 22.6654 48.5052 22.7355 48.9744C22.7565 49.1174 22.8117 49.246 22.8901 49.355C23.2363 49.4526 23.576 49.5468 23.9005 49.6362C24.2463 49.4869 24.4641 49.1137 24.4049 48.7176ZM25.7547 48.4531C25.338 48.5174 25.0509 48.9135 25.1137 49.3384C25.1769 49.7626 25.5659 50.0549 25.9833 49.9913C26.0363 49.9832 26.0875 49.9688 26.1357 49.951C26.3952 49.7393 26.1524 49.2597 25.9761 48.9818C26.1764 48.9674 26.3756 48.949 26.5753 48.9286C26.4457 48.6035 26.1107 48.398 25.7547 48.4531ZM33.6596 45.4102C33.4604 45.4405 33.3236 45.6301 33.3533 45.8329C33.3838 46.0358 33.5696 46.1747 33.7689 46.1444C33.9681 46.1134 34.1049 45.9246 34.0745 45.7214C34.0447 45.5189 33.8581 45.3796 33.6596 45.4102ZM36.031 45.9183C35.8884 45.9405 35.7907 46.0757 35.8118 46.2202C35.8223 46.2904 35.8601 46.3491 35.9109 46.3894C35.9649 46.4323 36.035 46.4541 36.1079 46.4426C36.2052 46.4278 36.2789 46.358 36.3108 46.2701C36.325 46.2298 36.3337 46.1862 36.3272 46.1404C36.3054 45.9959 36.1725 45.8965 36.031 45.9183ZM36.4277 43.6813C36.3591 43.6917 36.3115 43.7575 36.3221 43.8277C36.3319 43.8982 36.3968 43.9463 36.4658 43.9363C36.5348 43.9252 36.5823 43.8602 36.5718 43.7896C36.562 43.7187 36.4974 43.6706 36.4277 43.6813ZM34.0676 43.1408C33.9173 43.164 33.8139 43.3067 33.8364 43.4596C33.8589 43.6126 33.9993 43.7179 34.1496 43.695C34.2998 43.6721 34.4033 43.5287 34.3808 43.3758C34.3583 43.2232 34.2178 43.1175 34.0676 43.1408ZM34.4759 40.923C34.4174 40.9319 34.3775 40.9873 34.3862 41.0464C34.3949 41.1052 34.4494 41.1466 34.5078 41.137C34.5651 41.1285 34.6058 41.073 34.5963 41.0139C34.5876 40.9548 34.5339 40.9141 34.4759 40.923Z" fill="white"/>
<path d="M66.5379 20.8945L66.5379 21.6864C66.5379 22.1499 66.2382 22.4494 65.79 22.4494C65.3269 22.4494 65.0427 22.1499 65.0427 21.6864L65.0427 20.6398C65.0427 20.0274 64.7136 19.7278 64.1896 19.7278C63.6666 19.7278 63.3525 20.0274 63.3525 20.6398L63.3525 26.979C63.3525 27.592 63.6666 27.8911 64.1896 27.8911C64.7131 27.8911 65.0427 27.592 65.0427 26.979L65.0427 25.9325C65.0427 25.469 65.3269 25.17 65.79 25.17C66.2387 25.17 66.5379 25.469 66.5379 25.9325L66.5379 26.7249C66.5379 28.2493 65.7152 29.2511 64.1746 29.2511C62.6046 29.2511 61.7665 28.2798 61.7665 26.7249L61.7665 20.894C61.7665 19.3391 62.6041 18.3672 64.1746 18.3672C65.7152 18.3672 66.5379 19.369 66.5379 20.8945Z" fill="white"/>
<path d="M71.8326 20.8641C71.8326 19.3546 72.7899 18.3672 74.3156 18.3672C75.8407 18.3672 76.798 19.3546 76.798 20.8641L76.798 26.7548C76.798 28.2648 75.8407 29.2516 74.3156 29.2516C72.7899 29.2516 71.8326 28.2648 71.8326 26.7548L71.8326 20.8641V20.8641ZM75.2131 20.6398C75.2131 20.1016 74.8685 19.7278 74.3156 19.7278C73.7622 19.7278 73.4181 20.1016 73.4181 20.6398L73.4181 26.9791C73.4181 27.5173 73.7622 27.8911 74.3156 27.8911C74.8685 27.8911 75.2131 27.5173 75.2131 26.9791L75.2131 20.6398Z" fill="white"/>
<path d="M83.2151 18.5769L84.5912 18.5769C86.4459 18.5769 87.314 19.6683 87.314 21.3428L87.314 26.2767C87.314 27.9512 86.4459 29.0426 84.5912 29.0426L83.2151 29.0426C82.7514 29.0426 82.4229 28.7137 82.4229 28.2502L82.4229 19.3693C82.4229 18.9053 82.7514 18.5769 83.2151 18.5769ZM84.6067 27.6522C85.3545 27.6522 85.7285 27.2031 85.7285 26.5154L85.7285 21.1031C85.7285 20.4153 85.3551 19.9668 84.6067 19.9668L84.0084 19.9668L84.0084 27.6522L84.6067 27.6522Z" fill="white"/>
<path d="M92.938 19.22C92.938 18.7565 93.2521 18.4276 93.7307 18.4276C94.1939 18.4276 94.523 18.7565 94.523 19.22L94.523 28.3994C94.523 28.8628 94.1939 29.1918 93.7307 29.1918C93.2521 29.1918 92.938 28.8628 92.938 28.3994L92.938 19.22Z" fill="white"/>
<path d="M104.918 20.8945L104.918 21.6864C104.918 22.1499 104.618 22.4494 104.17 22.4494C103.707 22.4494 103.423 22.1499 103.423 21.6864L103.423 20.6398C103.423 20.0274 103.094 19.7278 102.57 19.7278C102.047 19.7278 101.733 20.0274 101.733 20.6398L101.733 26.979C101.733 27.592 102.047 27.8911 102.57 27.8911C103.093 27.8911 103.423 27.592 103.423 26.979L103.423 25.9325C103.423 25.469 103.707 25.17 104.17 25.17C104.619 25.17 104.918 25.469 104.918 25.9325L104.918 26.7249C104.918 28.2493 104.095 29.2511 102.555 29.2511C100.985 29.2511 100.147 28.2798 100.147 26.7249L100.147 20.894C100.147 19.3391 100.984 18.3672 102.555 18.3672C104.095 18.3672 104.918 19.369 104.918 20.8945Z" fill="white"/>
<path d="M110.423 19.3688C110.423 18.9053 110.752 18.5769 111.215 18.5769L114.207 18.5769C114.626 18.5769 114.909 18.8759 114.909 19.2791C114.909 19.6977 114.626 19.9818 114.207 19.9818L112.008 19.9818L112.008 23.0318L113.713 23.0318C114.117 23.0318 114.416 23.3308 114.416 23.7339C114.416 24.1526 114.117 24.4366 113.713 24.4366L112.008 24.4366L112.008 27.6362L114.222 27.6362C114.641 27.6362 114.925 27.9352 114.925 28.3383C114.925 28.7425 114.641 29.041 114.222 29.041L111.215 29.041C110.752 29.041 110.423 28.7121 110.423 28.2486L110.423 19.3688L110.423 19.3688Z" fill="white"/>
<path d="M121.821 24.9161L121.821 28.3992C121.821 28.8627 121.491 29.1916 121.028 29.1916C120.564 29.1916 120.235 28.8627 120.235 28.3992L120.235 19.3688C120.235 18.9053 120.564 18.5769 121.028 18.5769L122.434 18.5769C124.064 18.5769 125.006 19.3992 125.006 21.1335L125.006 22.3291C125.006 23.8989 123.96 24.9161 122.404 24.9161L121.821 24.9161ZM123.421 21.1031C123.421 20.4009 123.061 19.9818 122.389 19.9818L121.821 19.9818L121.821 23.5097L122.359 23.5097C123.032 23.5097 123.421 23.106 123.421 22.3883L123.421 21.1031V21.1031Z" fill="white"/>
<path d="M130.316 19.22C130.316 18.7565 130.645 18.4276 131.108 18.4276C131.571 18.4276 131.901 18.7565 131.901 19.22L131.901 27.6374L133.845 27.6374C134.249 27.6374 134.548 27.9364 134.548 28.3395C134.548 28.7438 134.249 29.0422 133.845 29.0422L131.108 29.0422C130.645 29.0422 130.316 28.7133 130.316 28.2498L130.316 19.22V19.22Z" fill="white"/>
<path d="M144.63 28.2354C144.75 28.8479 144.315 29.1923 143.882 29.1923C143.523 29.1923 143.164 28.9531 143.09 28.4447L142.835 26.6207L141.265 26.6207L141.025 28.4447C140.951 28.9531 140.621 29.1923 140.233 29.1923C139.799 29.1923 139.366 28.8479 139.486 28.2354L141.221 19.1751C141.325 18.6668 141.58 18.4276 142.058 18.4276C142.536 18.4276 142.791 18.6668 142.895 19.1751L144.63 28.2354ZM141.459 25.2447L142.656 25.2447L142.117 21.2378C142.102 21.1032 142.072 20.9238 142.057 20.7295C142.042 20.9238 142.013 21.1187 141.998 21.2378L141.459 25.2447Z" fill="white"/>
<path d="M149.73 26.3955C149.73 25.8871 150.014 25.633 150.463 25.633C150.942 25.633 151.226 25.932 151.226 26.3955L151.226 26.7543C151.226 27.4121 151.436 27.921 152.108 27.921C152.721 27.921 152.976 27.4719 152.976 26.7399C152.976 25.618 152.363 25.0355 151.659 24.3926C150.568 23.4058 149.655 22.4041 149.655 20.909C149.655 19.22 150.568 18.3673 152.018 18.3673C153.41 18.3673 154.322 19.2649 154.322 20.7146L154.322 21.2374C154.322 21.6859 154.023 21.97 153.575 21.97C153.141 21.97 152.827 21.6859 152.827 21.2374L152.827 20.7589C152.827 20.116 152.557 19.7268 152.019 19.7268C151.436 19.7268 151.211 20.1454 151.211 20.7883C151.211 21.7601 151.75 22.3432 152.438 22.9861C153.291 23.7935 154.532 24.9297 154.532 26.5893C154.532 28.1442 153.575 29.25 152.078 29.25C150.598 29.25 149.73 28.2035 149.73 26.8136L149.73 26.3955V26.3955Z" fill="white"/>
<path d="M162.46 19.9824L162.46 28.3999C162.46 28.8634 162.13 29.1923 161.667 29.1923C161.188 29.1923 160.874 28.8634 160.874 28.3999L160.874 19.9824L159.752 19.9824C159.348 19.9824 159.049 19.6984 159.049 19.2797C159.049 18.8761 159.349 18.5776 159.752 18.5776L163.581 18.5776C164 18.5776 164.284 18.8766 164.284 19.2797C164.284 19.6984 164 19.9824 163.581 19.9824L162.46 19.9824Z" fill="white"/>
<path d="M169.325 19.22C169.325 18.7565 169.639 18.4276 170.117 18.4276C170.581 18.4276 170.91 18.7565 170.91 19.22L170.91 28.3994C170.91 28.8628 170.581 29.1918 170.117 29.1918C169.639 29.1918 169.325 28.8628 169.325 28.3994L169.325 19.22Z" fill="white"/>
<path d="M181.305 20.8945L181.305 21.6864C181.305 22.1499 181.006 22.4494 180.557 22.4494C180.094 22.4494 179.81 22.1499 179.81 21.6864L179.81 20.6398C179.81 20.0274 179.481 19.7278 178.957 19.7278C178.434 19.7278 178.119 20.0274 178.119 20.6398L178.119 26.979C178.119 27.592 178.434 27.8911 178.957 27.8911C179.481 27.8911 179.81 27.592 179.81 26.979L179.81 25.9325C179.81 25.469 180.094 25.17 180.557 25.17C181.006 25.17 181.305 25.469 181.305 25.9325L181.305 26.7249C181.305 28.2493 180.483 29.2511 178.942 29.2511C177.372 29.2511 176.534 28.2798 176.534 26.7249L176.534 20.894C176.534 19.3391 177.372 18.3672 178.942 18.3672C180.483 18.3672 181.305 19.369 181.305 20.8945Z" fill="white"/>
<path d="M186.601 20.8641C186.601 19.3546 187.558 18.3672 189.083 18.3672C190.609 18.3672 191.566 19.3546 191.566 20.8641L191.566 26.7548C191.566 28.2648 190.609 29.2516 189.083 29.2516C187.558 29.2516 186.601 28.2648 186.601 26.7548L186.601 20.8641ZM189.981 20.6398C189.981 20.1016 189.637 19.7278 189.083 19.7278C188.53 19.7278 188.186 20.1016 188.186 20.6398L188.186 26.9791C188.186 27.5173 188.53 27.8911 189.083 27.8911C189.637 27.8911 189.981 27.5173 189.981 26.9791L189.981 20.6398Z" fill="white"/>
</svg>
